<svg aria-hidden="true" style="position: absolute; width: 0; height: 0; overflow: hidden;" version="1.1" xmlns="http://www.w3.org/2000/svg" xmlns:xlink="http://www.w3.org/1999/xlink">
<defs>
<symbol id="icon-antenna" viewBox="0 0 32 32">
<path d="M30.775 22.098l-8.443-8.505 0.937-4.616c0.225 0.090 0.485 0.144 0.758 0.146h0.007c0.008 0 0.017 0 0.026 0 1.192 0 2.159-0.967 2.159-2.159s-0.967-2.159-2.159-2.159c-1.192 0-2.159 0.967-2.159 2.159 0 0.259 0.046 0.508 0.13 0.739l-0.005-0.015-4.96 0.606-8.091-8.133c-0.096-0.098-0.229-0.159-0.376-0.16h-0c-0.14 0.001-0.274 0.057-0.373 0.155l-1.512 1.504c-0.096 0.097-0.156 0.23-0.156 0.377s0.060 0.281 0.156 0.377v0l0.814 0.825c-1.143 2.062-1.816 4.522-1.816 7.139 0 4.106 1.656 7.824 4.336 10.525l-0.001-0.001c0.043 0.041 0.092 0.074 0.146 0.097-0.032 0.164-0.051 0.353-0.052 0.546v6.188h-6.4c-1.472 0.001-2.666 1.194-2.667 2.666v1.067c0 0.295 0.239 0.534 0.534 0.534h24.534c0.294 0 0.533-0.239 0.533-0.534v-1.067c-0.002-1.472-1.195-2.665-2.666-2.666h-6.4v-2.742c1.003 0.21 2.024 0.317 3.049 0.32 2.58-0.003 5.005-0.663 7.117-1.822l-0.077 0.039 0.818 0.823c0.099 0.101 0.235 0.159 0.376 0.16 0.14-0.001 0.274-0.057 0.373-0.155l1.512-1.504c0.096-0.097 0.156-0.23 0.156-0.377s-0.060-0.281-0.156-0.377v0zM23.282 6.233c0.193-0.192 0.459-0.31 0.752-0.31 0.589 0 1.067 0.478 1.067 1.066s-0.477 1.066-1.067 1.066c-0 0-0 0-0 0h-0.004c-0.587-0.003-1.061-0.479-1.061-1.066 0-0.295 0.12-0.563 0.314-0.756l0-0h-0.002zM22.027 9.737l-0.598 2.946-1.175-1.183 1.774-1.763zM21.421 8.835l-1.92 1.909-1.486-1.493 3.406-0.416zM24.006 28.8c0.884 0 1.6 0.716 1.6 1.6v0 0.534h-23.466v-0.534c0-0.884 0.716-1.6 1.6-1.6v0h20.267zM16.54 26.666v1.067h-5.334v-1.067h5.334zM11.207 25.6v-4.053c0-1.294 1.196-2.346 2.667-2.346s2.667 1.053 2.667 2.346v4.053h-5.334zM17.607 23.904v-2.357c0-1.882-1.675-3.413-3.733-3.413-0.017-0-0.038-0-0.058-0-1.353 0-2.54 0.707-3.213 1.771l-0.009 0.016c-2.36-2.482-3.812-5.846-3.812-9.55 0-2.314 0.567-4.496 1.569-6.414l-0.036 0.077 18.602 18.709c-1.823 0.947-3.979 1.502-6.266 1.502-1.079 0-2.128-0.124-3.136-0.357l0.093 0.018zM28.896 23.22l-21.057-21.181 0.754-0.752 7.935 7.98c0.004 0 0.006 0.007 0.010 0.010l13.114 13.191-0.757 0.752z"></path>
</symbol>
<symbol id="icon-astronaut" viewBox="0 0 32 32">
<path fill="#2196f3" style="fill: var(--color1, #2196f3)" d="M31.974 4.524c-0.064-0.191-0.227-0.332-0.427-0.362l-0.003-0-1.911-0.278-0.855-1.731c-0.179-0.365-0.777-0.365-0.956 0l-0.855 1.731-1.911 0.278c-0.26 0.039-0.457 0.26-0.457 0.528 0 0.15 0.062 0.285 0.161 0.382l1.383 1.348-0.326 1.903c-0.034 0.2 0.048 0.402 0.212 0.522 0.166 0.12 0.383 0.135 0.562 0.040l1.709-0.899 1.709 0.899c0.072 0.038 0.157 0.061 0.247 0.061 0.295 0 0.534-0.239 0.534-0.534 0-0.031-0.003-0.062-0.008-0.092l0 0.003-0.326-1.903 1.383-1.348c0.099-0.097 0.161-0.233 0.161-0.382 0-0.059-0.009-0.115-0.027-0.168l0.001 0.004zM29.511 5.851c-0.126 0.122-0.183 0.299-0.153 0.472l0.191 1.114-1-0.526c-0.072-0.039-0.158-0.062-0.249-0.062s-0.177 0.023-0.252 0.063l0.003-0.001-1 0.526 0.191-1.114c0.005-0.027 0.008-0.059 0.008-0.091 0-0.149-0.061-0.285-0.16-0.381l-0-0-0.811-0.79 1.119-0.162c0.174-0.025 0.324-0.134 0.402-0.292l0.5-1.013 0.5 1.013c0.078 0.158 0.228 0.267 0.402 0.292l1.119 0.162-0.809 0.79zM26.134 20.522h-1.067v1.067h1.067v-1.067zM26.134 22.656h-1.067v1.066h1.067v-1.066zM27.2 21.589h-1.067v1.067h1.067v-1.067zM25.067 21.589h-1.067v1.067h1.067v-1.067zM22.4 26.389h-1.067v1.067h1.067v-1.067zM22.4 28.523h-1.067v1.067h1.067v-1.067zM23.467 27.456h-1.067v1.067h1.067v-1.067zM21.334 27.456h-1.067v1.067h1.067v-1.067zM16 24.256h-1.066v1.067h1.066v-1.067zM16 26.389h-1.066v1.067h1.066v-1.067zM17.067 25.322h-1.067v1.067h1.067v-1.067zM14.934 25.322h-1.067v1.067h1.067v-1.067zM5.867 6.122h-1.066v1.066h1.066v-1.066zM5.867 8.256h-1.066v1.066h1.066v-1.066zM6.933 7.189h-1.067v1.067h1.066v-1.067zM4.8 7.189h-1.067v1.067h1.067v-1.067z"></path>
<path fill="#212121" style="fill: var(--color2, #212121)" d="M24.715 14.16c-0.28-0.376-0.698-0.636-1.179-0.703l-0.009-0.001c-0.076-0.012-0.164-0.018-0.254-0.018-0.411 0-0.789 0.139-1.090 0.373l0.004-0.003-1.253 0.96-1.898 1.417-1.358-0.541c2.421-1.086 4.113-3.508 4.113-6.32 0-3.823-3.122-6.934-6.961-6.934s-6.961 3.11-6.961 6.934c0 1.386 0.415 2.674 1.12 3.759l-2.768-0.024c-0.009 0-0.016 0.005-0.023 0.005-0.057 0.003-0.11 0.014-0.159 0.033l0.004-0.001c-0.013 0.005-0.026 0.007-0.038 0.013-0.006 0.003-0.013 0.003-0.019 0.006l-3.233 1.596c-0 0-0.001 0-0.001 0.001l-1.893 0.91c-0.024 0.011-0.045 0.023-0.065 0.036l0.001-0.001c-0.482 0.324-0.795 0.867-0.795 1.483 0 0.297 0.073 0.577 0.201 0.823l-0.005-0.010c0.22 0.424 0.592 0.742 1.043 0.885l0.013 0.003c0.161 0.053 0.345 0.083 0.537 0.083 0.308 0 0.598-0.078 0.851-0.216l-0.009 0.005 1.388-0.738 2.264-1.169 1.357-0.008-5.442 5.415c0 0.001-0.001 0.001-0.001 0.001l-1.339 1.333c-0.303 0.299-0.491 0.714-0.491 1.173 0 0.002 0 0.003 0 0.005v-0c0.002 0.919 0.748 1.664 1.667 1.664 0.001 0 0.002 0 0.002 0h-0c0.428 0 0.854-0.162 1.18-0.485l1.314-1.309 1.741-1.3 0.901 0.897-3.102 3.088c-0.303 0.299-0.491 0.714-0.491 1.173 0 0.001 0 0.003 0 0.004v-0c0 0.445 0.174 0.864 0.49 1.179 0.302 0.3 0.717 0.485 1.176 0.485 0.001 0 0.002 0 0.003 0h-0c0.427 0 0.855-0.162 1.18-0.485l4.488-4.472c0.007-0.006 0.016-0.009 0.022-0.016l5.166-5.658 3.471 0.494c0.025 0.004 0.050 0.006 0.075 0.006 0.064 0 0.127-0.016 0.187-0.038 0.017-0.006 0.032-0.015 0.049-0.023 0.019-0.010 0.039-0.015 0.058-0.027l3.213-2.133c0.012-0.008 0.018-0.021 0.029-0.030 0.013-0.010 0.029-0.014 0.041-0.026l1.271-1.191c0.348-0.326 0.564-0.787 0.564-1.3 0-0.4-0.132-0.769-0.355-1.066l0.003 0.005zM2.13 17.77c-0.098 0.054-0.215 0.086-0.34 0.086-0.078 0-0.153-0.013-0.224-0.036l0.005 0.001c-0.294-0.093-0.504-0.364-0.504-0.683 0-0.235 0.114-0.444 0.289-0.575l0.002-0.001 1.314-0.632 0.316 0.924 0.133 0.389-0.992 0.527zM5.627 15.942l-1.548 0.8-0.255-0.746-0.184-0.537 2.027-1.001-0.040 1.484zM20.727 9.322c0 0.918-0.219 1.785-0.599 2.56l-4.181-1.899c-0.044-0.575-0.342-1.072-0.782-1.384l-0.006-0.004 1.464-4.861c2.377 0.757 4.104 2.975 4.104 5.588zM8.938 9.322c0-3.235 2.644-5.867 5.894-5.867 0.253 0 0.5 0.022 0.745 0.053l-1.432 4.753c-0.019 0-0.037-0.006-0.057-0.006-0 0-0.001 0-0.001 0-1.032 0-1.869 0.835-1.872 1.867v0c0.003 1.031 0.84 1.867 1.872 1.867 0 0 0 0 0.001 0h-0c0.695 0 1.295-0.383 1.618-0.944l3.863 1.755c-1.075 1.447-2.795 2.39-4.737 2.39-3.25 0-5.894-2.632-5.894-5.867zM14.895 10.122c0 0.441-0.362 0.8-0.806 0.8-0 0-0.001 0-0.001 0-0.443 0-0.802-0.358-0.804-0.8v-0c0-0.441 0.361-0.8 0.806-0.8s0.806 0.359 0.806 0.8zM2.464 25.146c-0.11 0.109-0.261 0.176-0.428 0.176s-0.317-0.067-0.427-0.175l0 0c-0.109-0.108-0.176-0.257-0.176-0.422s0.067-0.314 0.176-0.422l0-0 0.962-0.959 0.852 0.848-0.959 0.954zM5.678 28.88c-0.11 0.109-0.261 0.176-0.428 0.176s-0.317-0.067-0.427-0.175l0 0c-0.109-0.108-0.176-0.257-0.176-0.422s0.067-0.314 0.176-0.422l0-0 0.963-0.959 0.852 0.848-0.96 0.955zM9.16 25.411l-0.001 0.001-1.765 1.76-0.852-0.848 1.765-1.757c0.040-0.040 0.065-0.088 0.090-0.136 0.007-0.014 0.020-0.026 0.026-0.040 0.016-0.041 0.019-0.085 0.026-0.128 0.003-0.025 0.014-0.048 0.014-0.073 0-0.035-0.013-0.070-0.020-0.105-0.006-0.032-0.006-0.064-0.019-0.096-0.025-0.053-0.055-0.098-0.092-0.138l0 0c-0.010-0.012-0.014-0.026-0.025-0.038h-0.001s0-0.001-0.001-0.002l-1.607-1.6c-0.017-0.017-0.039-0.024-0.058-0.038-0.025-0.021-0.054-0.040-0.084-0.056l-0.003-0.001c-0.026-0.012-0.058-0.023-0.090-0.031l-0.003-0.001c-0.030-0.009-0.065-0.017-0.101-0.020l-0.002-0c-0.007-0-0.015-0-0.023-0-0.026 0-0.051 0.002-0.075 0.005l0.003-0c-0.036 0.005-0.069 0.009-0.104 0.021s-0.064 0.027-0.094 0.045c-0.020 0.011-0.043 0.015-0.061 0.029l-1.774 1.324-0.901-0.897 2.399-2.386 4.36 4.289-0.928 0.919zM15.979 18.394c-0.016-0.002-0.030 0.004-0.046 0.003-0.008-0-0.017-0.001-0.027-0.001-0.031 0-0.062 0.003-0.092 0.008l0.003-0c-0.070 0.011-0.132 0.035-0.187 0.070l0.002-0.001c-0.030 0.018-0.057 0.037-0.083 0.061-0.013 0.011-0.028 0.016-0.040 0.029l-4.698 5.146-4.328-4.256 2.833-2.818c0.096-0.097 0.156-0.23 0.156-0.377 0-0.295-0.239-0.534-0.534-0.534-0.001 0-0.001 0-0.002 0h0l-2.219 0.013 0.028-1.607 3.104 0.027c1.264 1.297 3.027 2.101 4.978 2.101 0.001 0 0.002 0 0.003 0h-0c0.438 0 0.864-0.046 1.28-0.122 0.040 0.032 0.080 0.064 0.129 0.085l2.41 0.96 0.152 0.758 0.178 0.886-3.003-0.427zM20.020 18.572l-0.313-1.558 1.446-1.080 0.946 1.257-2.080 1.381zM23.773 15.741l-0.837 0.785-0.931-1.236 0.831-0.637c0.155-0.119 0.351-0.168 0.543-0.143 0.193 0.027 0.364 0.128 0.48 0.284 0.088 0.117 0.141 0.265 0.141 0.426 0 0.206-0.087 0.391-0.226 0.521l-0 0z"></path>
<path fill="#212121" style="fill: var(--color2, #212121)" d="M13.602 18.544l-2.143-2.134c-0.096-0.096-0.229-0.155-0.376-0.155s-0.28 0.059-0.376 0.155l-2.143 2.133c-0.097 0.097-0.156 0.23-0.156 0.378s0.060 0.281 0.156 0.378l-0-0 2.142 2.134c0.096 0.096 0.229 0.156 0.376 0.156s0.28-0.059 0.376-0.156v0l2.143-2.134c0.097-0.097 0.157-0.23 0.157-0.378s-0.060-0.281-0.157-0.378l-0-0zM11.083 20.303l-1.387-1.381 1.386-1.381 1.387 1.381-1.387 1.381zM17.164 5.071l-0.258 1.036c0.071 0.018 1.738 0.452 1.738 2.149h1.067c0-2.017-1.666-2.965-2.547-3.184zM19.711 9.322h-1.067v1.066h1.067v-1.066z"></path>
</symbol>
<symbol id="icon-clock" viewBox="0 0 32 32">
<path d="M31.298 15.301c-0.001-8.452-6.855-15.303-15.308-15.301s-15.303 6.855-15.301 15.308c0.002 6.788 4.422 12.543 10.541 14.545l0.108 0.031c0.061 0.019 0.123 0.029 0.187 0.029 0.12 0 0.238-0.032 0.342-0.094 0.135-0.080 0.236-0.207 0.283-0.357l3.865-12.25c1.054-0.004 1.906-0.859 1.906-1.913 0-1.056-0.856-1.913-1.913-1.913-0.303 0-0.59 0.071-0.845 0.196l0.011-0.005-5.106-5.107c-0.114-0.11-0.271-0.179-0.443-0.179-0.352 0-0.638 0.286-0.638 0.638 0 0.172 0.068 0.328 0.179 0.443l-0-0 5.103 5.109c-0.121 0.241-0.191 0.525-0.191 0.825 0 0.602 0.283 1.137 0.724 1.481l0.004 0.003-3.683 11.673c-7.278-2.681-11.004-10.754-8.324-18.032s10.754-11.004 18.032-8.323c7.278 2.681 11.004 10.754 8.323 18.032-1.345 3.581-4.003 6.406-7.374 7.938l-0.088 0.036-0.398-1.874c-0.063-0.291-0.318-0.506-0.624-0.506-0.164 0-0.313 0.062-0.426 0.163l0.001-0.001-3.837 3.426c-0.132 0.117-0.214 0.287-0.214 0.477 0 0.283 0.185 0.524 0.441 0.606l0.005 0.001 4.899 1.563c0.058 0.020 0.126 0.031 0.196 0.031 0.352 0 0.637-0.285 0.637-0.637 0-0.047-0.005-0.093-0.015-0.138l0.001 0.004-0.391-1.839c5.528-2.374 9.329-7.772 9.329-14.057 0-0.011 0-0.023-0-0.034v0.002zM15.993 14.664c0.352 0 0.638 0.286 0.638 0.638s-0.285 0.638-0.638 0.638v0c-0.352 0-0.638-0.286-0.638-0.638s0.286-0.638 0.638-0.638v0zM18.094 29.528l2.184-1.948 0.603 2.84-2.787-0.892z"></path>
</symbol>
<symbol id="icon-company-1" viewBox="0 0 106 60">
<path d="M38 7L45.0078 13.6341L32 13.6265V45.8137H66V33.507L73 40.1338V7H38ZM65.6924 32.7283L45.8226 13.918H65.6924V32.7283ZM59.5231 41.1055H37.3801V19.4579H38.9453V39.6397H59.5231V41.1055ZM42.6089 50.0991L41.791 51.7837L40.9731 50.0991H40.2871L41.481 52.3452V53.6538H42.1011V52.3452L43.2925 50.0991H42.6089ZM43.6367 53.6538L43.9248 52.8262H45.3018L45.5923 53.6538H46.2368L44.8916 50.0991H44.3374L42.9946 53.6538H43.6367ZM44.6133 50.8535L45.1284 52.3281H44.0981L44.6133 50.8535ZM47.8701 52.2427C47.7806 52.3794 47.7358 52.5299 47.7358 52.6943C47.7358 52.9938 47.8408 53.2371 48.0508 53.4243C48.2624 53.6099 48.5439 53.7026 48.8955 53.7026C49.2471 53.7026 49.5498 53.6074 49.8037 53.417L50.0039 53.6538H50.6924L50.1699 53.0361C50.375 52.7562 50.4775 52.3973 50.4775 51.9595H49.9624C49.9624 52.1987 49.9128 52.416 49.8135 52.6113L49.1274 51.8008L49.3691 51.625C49.54 51.5013 49.6629 51.3776 49.7378 51.2539C49.8127 51.1286 49.8501 50.9919 49.8501 50.8438C49.8501 50.6191 49.7671 50.4312 49.6011 50.2798C49.4367 50.1268 49.2251 50.0503 48.9663 50.0503C48.6798 50.0503 48.452 50.1317 48.2827 50.2944C48.1134 50.4556 48.0288 50.6753 48.0288 50.9536C48.0288 51.0675 48.0557 51.1855 48.1094 51.3076C48.1647 51.4297 48.2616 51.5778 48.3999 51.752C48.1362 51.9408 47.9596 52.1043 47.8701 52.2427ZM49.4741 53.0288C49.3 53.1623 49.1128 53.229 48.9126 53.229C48.7352 53.229 48.5936 53.1777 48.4878 53.0752C48.382 52.9727 48.3291 52.8392 48.3291 52.6748C48.3291 52.4844 48.4268 52.3151 48.6221 52.167L48.6978 52.1133L49.4741 53.0288ZM48.8369 51.4541C48.6693 51.2474 48.5854 51.0757 48.5854 50.939C48.5854 50.8201 48.6196 50.7217 48.688 50.6436C48.7563 50.5654 48.8483 50.5264 48.9639 50.5264C49.0713 50.5264 49.16 50.5597 49.23 50.6265C49.3 50.6916 49.335 50.7705 49.335 50.8633C49.335 51.0033 49.2845 51.118 49.1836 51.2075L49.1079 51.2686L48.8369 51.4541ZM54.623 53.3853C54.8672 53.172 55.0072 52.8758 55.043 52.4966H54.4277C54.3952 52.7505 54.3179 52.932 54.1958 53.041C54.0737 53.1501 53.8914 53.2046 53.6489 53.2046C53.3836 53.2046 53.1818 53.1037 53.0435 52.9019C52.9067 52.7 52.8384 52.4071 52.8384 52.0229V51.708C52.8416 51.3288 52.9149 51.0415 53.0581 50.8462C53.203 50.6493 53.4097 50.5508 53.6782 50.5508C53.9093 50.5508 54.0843 50.6077 54.2031 50.7217C54.3236 50.834 54.3984 51.0179 54.4277 51.2734H55.043C55.0039 50.8844 54.8647 50.5833 54.6255 50.3701C54.3862 50.1569 54.0705 50.0503 53.6782 50.0503C53.3869 50.0503 53.1297 50.1195 52.9067 50.2578C52.6854 50.3962 52.5153 50.5931 52.3965 50.8486C52.2777 51.1042 52.2183 51.3996 52.2183 51.7349V52.0669C52.2231 52.394 52.2842 52.6813 52.4014 52.9287C52.5186 53.1761 52.6846 53.3674 52.8994 53.5024C53.1159 53.6359 53.3657 53.7026 53.6489 53.7026C54.0542 53.7026 54.3789 53.5968 54.623 53.3853ZM58.2534 52.8872C58.3739 52.6235 58.4341 52.3175 58.4341 51.9692V51.7715C58.4325 51.4248 58.3706 51.1213 58.2485 50.8608C58.1265 50.5988 57.9531 50.3986 57.7285 50.2603C57.5055 50.1203 57.2492 50.0503 56.9595 50.0503C56.6698 50.0503 56.4126 50.1211 56.188 50.2627C55.965 50.4027 55.7917 50.6053 55.668 50.8706C55.5459 51.1359 55.4849 51.4419 55.4849 51.7886V51.9888C55.4865 52.3289 55.5483 52.6292 55.6704 52.8896C55.7941 53.1501 55.9683 53.3511 56.1929 53.4927C56.4191 53.6326 56.6763 53.7026 56.9644 53.7026C57.2557 53.7026 57.5129 53.6326 57.7358 53.4927C57.9604 53.3511 58.133 53.1493 58.2534 52.8872ZM57.5918 50.8779C57.7415 51.0879 57.8164 51.3898 57.8164 51.7837V51.9692C57.8164 52.3696 57.7423 52.674 57.5942 52.8823C57.4478 53.0907 57.2378 53.1948 56.9644 53.1948C56.6942 53.1948 56.4826 53.0882 56.3296 52.875C56.1782 52.6618 56.1025 52.3599 56.1025 51.9692V51.7642C56.1058 51.3817 56.1823 51.0863 56.332 50.8779C56.4834 50.668 56.6925 50.563 56.9595 50.563C57.2329 50.563 57.4437 50.668 57.5918 50.8779Z"/>
</symbol>
<symbol id="icon-company-2" viewBox="0 0 106 60">
<path d="M50.1136 5.93452H49.977C49.7671 5.92181 49.5571 5.91672 49.3471 5.91163H49.3471H49.3269H48.8918C48.4946 5.91163 48.0898 5.92181 47.6876 5.94215C47.6573 5.93994 47.6269 5.93994 47.5966 5.94215C43.9522 6.14863 40.3817 7.05951 37.0805 8.62492L36.6479 8.83344V30.9746L37.6598 30.6313C38.5477 30.3261 39.4938 30.0515 40.4728 29.7972C43.1193 29.1178 45.8367 28.7567 48.568 28.7216V31.6306C48.2062 31.6332 47.8546 31.6434 47.503 31.6612H47.4195C45.3175 31.7765 43.2317 32.0967 41.1913 32.6173C38.6072 33.2643 36.1143 34.2357 33.7716 35.5086V7.11189C36.2047 5.69275 38.8253 4.62687 41.5556 3.94596C43.9527 3.32705 46.4169 3.00931 48.8918 3H49.3193C49.8303 3.01271 50.3287 3.0356 50.7967 3.0712C52.0297 3.15778 53.2528 3.35263 54.4521 3.65353V6.51685C53.2874 6.24551 52.1032 6.06695 50.9105 5.98284C50.8863 5.98079 50.8621 5.97872 50.8379 5.97666C50.5911 5.95561 50.344 5.93452 50.1136 5.93452ZM55.1528 8.86138C55.7877 8.9097 56.4455 8.93259 57.1108 8.93259C59.7125 8.92307 62.3031 8.59083 64.8239 7.94339C67.4068 7.29396 69.8986 6.32178 72.2411 5.04956V32.9402C69.8067 34.3585 67.1853 35.4243 64.4546 36.1061C62.0571 36.7227 59.5931 37.0395 57.1184 37.0496C55.2433 37.0647 53.3737 36.8443 51.553 36.3935V8.32229C51.983 8.42146 52.4257 8.51301 52.876 8.58929C53.6147 8.7139 54.3939 8.80544 55.1528 8.86138ZM69.3471 9.07753L68.3352 9.41828C67.4042 9.73106 66.4657 10.0108 65.5221 10.26C62.7749 10.966 59.9514 11.3281 57.1158 11.3382C56.4556 11.3382 55.8485 11.3204 55.2616 11.2822L54.4546 11.2288V31.3178V34.0057L55.1477 34.0667C55.7903 34.1227 56.4531 34.1506 57.1209 34.1506C59.3544 34.1412 61.5781 33.8533 63.7412 33.2937C65.5223 32.8469 67.2552 32.2243 68.9145 31.4348L69.3471 31.2263V9.07753Z"/>
<path d="M35.7371 45.2124C35.5917 45.0615 35.4163 44.943 35.2224 44.8646C35.0284 44.7862 34.8203 44.7496 34.6114 44.7572C34.3888 44.7542 34.1678 44.7957 33.9613 44.8793C33.7719 44.9547 33.5998 45.068 33.4553 45.2124C33.3125 45.3572 33.2013 45.5304 33.129 45.721C33.0497 45.9207 33.0101 46.1341 33.0126 46.3491V50.1431C33.0036 50.4104 33.0546 50.6764 33.1619 50.9212C33.2514 51.1156 33.3807 51.2889 33.5413 51.4298C33.693 51.5575 33.871 51.6495 34.0625 51.6994C34.2469 51.7512 34.4376 51.7777 34.6291 51.7782C34.8404 51.7803 35.0495 51.7351 35.2413 51.646C35.4309 51.563 35.6028 51.4438 35.7473 51.295C35.8881 51.1476 36.0005 50.9752 36.0786 50.7864C36.1597 50.5951 36.201 50.3892 36.2001 50.1812V49.7566H35.2084V50.0948C35.2114 50.2103 35.1916 50.3252 35.1502 50.433C35.1179 50.5137 35.0688 50.5866 35.006 50.6466C34.9446 50.6962 34.8742 50.7334 34.7986 50.7559C34.7316 50.7782 34.6617 50.7902 34.5912 50.7915C34.5026 50.8018 34.413 50.7885 34.3312 50.7527C34.2495 50.717 34.1786 50.6602 34.1257 50.5881C34.0322 50.4356 33.9864 50.2585 33.9942 50.0795V46.5423C33.988 46.3462 34.0297 46.1515 34.1156 45.9753C34.1671 45.8952 34.2399 45.8313 34.3258 45.7908C34.4117 45.7503 34.5071 45.7349 34.6013 45.7464C34.6868 45.7434 34.7717 45.7612 34.8488 45.7984C34.9259 45.8356 34.9929 45.8911 35.044 45.96C35.155 46.1057 35.213 46.2852 35.2084 46.4686V46.7966H36.19V46.4101C36.1919 46.1831 36.1507 45.9578 36.0685 45.7464C35.9953 45.5476 35.8825 45.3659 35.7371 45.2124Z"/>
<path d="M41.6289 45.1691C41.3127 44.9021 40.9136 44.7546 40.5007 44.7521C40.2987 44.7529 40.0984 44.7891 39.9087 44.8589C39.7161 44.9279 39.5384 45.0332 39.3851 45.1691C39.2208 45.3168 39.0897 45.498 39.0005 45.7006C38.9006 45.9323 38.8515 46.183 38.8563 46.4355V50.0744C38.8495 50.3304 38.8987 50.5847 39.0005 50.8195C39.0903 51.0151 39.2215 51.1887 39.3851 51.328C39.5367 51.4688 39.7147 51.5777 39.9087 51.6485C40.0984 51.7183 40.2987 51.7544 40.5007 51.7553C40.7027 51.7549 40.9031 51.7187 41.0926 51.6485C41.29 51.5767 41.4719 51.468 41.6289 51.328C41.7871 51.1861 41.9145 51.013 42.0033 50.8195C42.1051 50.5847 42.1544 50.3304 42.1475 50.0744V46.4355C42.1524 46.183 42.1032 45.9323 42.0033 45.7006C41.9151 45.5001 41.7878 45.3194 41.6289 45.1691ZM41.166 50.0744C41.1743 50.1714 41.1609 50.269 41.1268 50.3601C41.0926 50.4512 41.0386 50.5334 40.9687 50.6008C40.8377 50.7106 40.6725 50.7708 40.5019 50.7708C40.3313 50.7708 40.1662 50.7106 40.0352 50.6008C39.9652 50.5334 39.9112 50.4512 39.8771 50.3601C39.8429 50.269 39.8295 50.1714 39.8379 50.0744V46.4355C39.8295 46.3385 39.8429 46.2409 39.8771 46.1498C39.9112 46.0587 39.9652 45.9764 40.0352 45.9091C40.1662 45.7993 40.3313 45.7391 40.5019 45.7391C40.6725 45.7391 40.8377 45.7993 40.9687 45.9091C41.0386 45.9764 41.0926 46.0587 41.1268 46.1498C41.1609 46.2409 41.1743 46.3385 41.166 46.4355V50.0744Z"/>
<path d="M49.3673 51.6994V44.8107H48.4136L47.1614 48.4572H47.1437L45.8813 44.8107H44.9377V51.6994H45.9218V47.5087H45.9395L46.9033 50.4712H47.3941L48.3655 47.5087H48.3832V51.6994H49.3673Z"/>
<path d="M54.9581 45.2937C54.8065 45.1237 54.6153 44.9943 54.4015 44.9173C54.1712 44.8424 53.9302 44.8063 53.6881 44.8105H52.226V51.6993H53.2075V49.0089H53.7134C54.0197 49.0228 54.3244 48.958 54.5988 48.8207C54.822 48.6968 55.0081 48.515 55.1377 48.2943C55.2512 48.1111 55.3277 47.9071 55.3628 47.6942C55.4014 47.435 55.4192 47.173 55.4159 46.911C55.4255 46.5802 55.3932 46.2495 55.3198 45.9269C55.2543 45.6885 55.1299 45.4706 54.9581 45.2937ZM54.4521 47.3941C54.4479 47.5188 54.4168 47.6412 54.361 47.7527C54.3049 47.8586 54.2162 47.9434 54.1081 47.9942C53.9627 48.0593 53.8041 48.0889 53.6451 48.0807H53.1974V45.7387H53.7033C53.8557 45.7312 54.0075 45.7609 54.146 45.8251C54.2475 45.8834 54.3281 45.9724 54.3762 46.0794C54.4299 46.2004 54.4591 46.331 54.4622 46.4634C54.4622 46.6084 54.4622 46.7609 54.4622 46.9211C54.4622 47.0813 54.4723 47.2466 54.4622 47.3941H54.4521Z"/>
<path d="M59.6077 44.8107H58.8032L57.2854 51.6994H58.2669L58.5553 50.2194H59.8935L60.1819 51.6994H61.1635L59.6077 44.8107ZM58.702 49.2811L59.1852 46.784H59.2029L59.6836 49.2811H58.702Z"/>
<path d="M65.9497 48.9607H65.932L64.4496 44.8107H63.506V51.6994H64.4875V47.557H64.5078L66.0079 51.6994H66.9312V44.8107H65.9497V48.9607Z"/>
<path d="M71.9476 44.8107L71.1583 47.5494H71.1381L70.3488 44.8107H69.3091L70.6574 48.7878V51.6994H71.639V48.7878L72.9873 44.8107H71.9476Z"/>
<path d="M33 53.6445H33.4731V54.9719H33.7943V53.6445H34.2649V53.3724H33V53.6445Z"/>
<path d="M36.9767 53.3724L36.3569 54.9719H36.6984L36.83 54.6083H37.4675L37.6041 54.9719H37.9532L37.3182 53.3724H36.9767ZM36.9261 54.3387L37.1437 53.7462L37.3612 54.3387H36.9261Z"/>
<path d="M40.9079 54.3821H41.2773V54.5881C41.1694 54.6746 41.0358 54.722 40.8978 54.7229C40.8333 54.7265 40.7689 54.7145 40.7099 54.688C40.6509 54.6614 40.5991 54.6211 40.5588 54.5703C40.474 54.4485 40.4322 54.3017 40.4399 54.1533C40.4399 53.7973 40.5942 53.6193 40.9003 53.6193C40.9809 53.6112 41.0617 53.6325 41.128 53.6791C41.1944 53.7257 41.2419 53.7947 41.2621 53.8735L41.5783 53.8125C41.51 53.4997 41.2849 53.3421 40.9003 53.3421C40.6947 53.3366 40.4947 53.4103 40.3413 53.5481C40.2607 53.6276 40.1983 53.7239 40.1586 53.8302C40.1188 53.9365 40.1026 54.0502 40.1111 54.1634C40.1017 54.3823 40.1749 54.5966 40.316 54.7636C40.3943 54.8444 40.4892 54.9071 40.594 54.9475C40.6988 54.9879 40.8111 55.0049 40.9231 54.9975C41.1734 55.0045 41.4165 54.9133 41.6011 54.7432V54.1126H40.9079V54.3821Z"/>
<path d="M44.9226 53.3724H44.5988V54.9719H45.7194V54.6998H44.9226V53.3724Z"/>
<path d="M48.3175 53.3724H47.9937V54.9719H48.3175V53.3724Z"/>
<path d="M51.6365 54.4405L50.9813 53.3724H50.6676V54.9719H50.9686V53.9268L51.6112 54.9719H51.9325V53.3724H51.6365V54.4405Z"/>
<path d="M54.6368 54.2675H55.4337V53.9954H54.6368V53.6445H55.4944V53.3724H54.313V54.9719H55.5273V54.6998H54.6368V54.2675Z"/>
<path d="M61.9122 54.0031H61.2823V53.3724H60.9611V54.9719H61.2823V54.2726H61.9122V54.9719H62.2335V53.3724H61.9122V54.0031Z"/>
<path d="M64.9302 54.2675H65.7296V53.9954H64.9302V53.6445H65.7903V53.3724H64.6089V54.9719H65.8206V54.6998H64.9302V54.2675Z"/>
<path d="M69.0233 54.2676C69.3015 54.2244 69.4432 54.0769 69.4432 53.8226C69.4513 53.7546 69.441 53.6856 69.4134 53.623C69.3858 53.5603 69.3419 53.5063 69.2863 53.4666C69.1415 53.3938 68.9799 53.3614 68.8183 53.3725H68.1404V54.972H68.4617V54.3032H68.5249C68.5934 54.299 68.6619 54.3112 68.7247 54.3388C68.7717 54.3678 68.8108 54.4079 68.8386 54.4558L69.1877 54.9644H69.5722L69.3774 54.6516C69.2913 54.4972 69.1699 54.3656 69.0233 54.2676ZM68.6994 54.0464H68.4617V53.6446H68.7146C68.8248 53.6357 68.9357 53.6486 69.041 53.6827C69.0644 53.7034 69.0828 53.7291 69.095 53.7579C69.1072 53.7867 69.1127 53.8179 69.1113 53.8492C69.1098 53.8804 69.1014 53.911 69.0866 53.9385C69.0718 53.966 69.051 53.9899 69.0258 54.0082C68.9202 54.0406 68.8096 54.0535 68.6994 54.0464Z"/>
<path d="M72.1096 54.2675H72.9064V53.9954H72.1096V53.6445H72.9697V53.3724H71.7858V54.9719H73V54.6998H72.1096V54.2675Z"/>
</symbol>
<symbol id="icon-company-3" viewBox="0 0 106 60">
<path d="M36.4062 49.1014C36.4221 49.1018 36.4378 49.1049 36.4523 49.1106C36.4668 49.1163 36.4799 49.1245 36.4907 49.1346L36.7089 49.3431C36.5395 49.5118 36.3303 49.6468 36.0954 49.7388C35.8203 49.8391 35.5239 49.8875 35.2257 49.8809C34.9454 49.8859 34.667 49.8408 34.4077 49.7482C34.1738 49.6632 33.9637 49.5356 33.7915 49.3739C33.6158 49.2062 33.4805 49.0096 33.3935 48.7958C33.2982 48.5574 33.2511 48.3065 33.2544 48.0542C33.2505 47.8003 33.3014 47.548 33.4044 47.3103C33.4996 47.0951 33.6433 46.8986 33.827 46.7322C34.0132 46.5691 34.2359 46.4408 34.4813 46.3555C34.7499 46.265 35.0358 46.22 35.3238 46.2228C35.5913 46.2172 35.8574 46.2582 36.1063 46.3436C36.3222 46.425 36.5205 46.538 36.6925 46.6777L36.5098 46.9004C36.4972 46.9161 36.4815 46.9297 36.4635 46.9407C36.4419 46.9535 36.4159 46.9594 36.3899 46.9573C36.3616 46.9556 36.3343 46.9474 36.3108 46.9336L36.2126 46.8743L36.0763 46.7985C36.0175 46.7704 35.9564 46.7458 35.8936 46.7251C35.8128 46.6999 35.7298 46.6801 35.6455 46.6659C35.5385 46.6487 35.4299 46.6408 35.3211 46.6422C35.1137 46.6399 34.9079 46.6737 34.7158 46.7417C34.5367 46.8046 34.3749 46.8999 34.2414 47.0212C34.1054 47.1503 34.0007 47.3018 33.9333 47.4667C33.8565 47.6553 33.8187 47.8542 33.8215 48.0542C33.8182 48.2574 33.8561 48.4595 33.9333 48.6513C33.9998 48.8147 34.1027 48.9653 34.2359 49.0943C34.3608 49.2146 34.5156 49.3086 34.6885 49.3692C34.8665 49.4333 35.0575 49.4655 35.2502 49.4639C35.3615 49.4654 35.4727 49.4591 35.5828 49.445C35.7626 49.4259 35.9351 49.3716 36.0872 49.2862C36.1635 49.2425 36.2356 49.1934 36.3026 49.1393C36.3306 49.1161 36.3675 49.1026 36.4062 49.1014Z"/>
<path d="M42.7043 48.0538C42.7077 48.3052 42.6578 48.5549 42.5571 48.7906C42.4682 49.0043 42.3283 49.1993 42.1464 49.3626C41.9645 49.526 41.7449 49.654 41.502 49.7382C40.9682 49.9151 40.3781 49.9151 39.8443 49.7382C39.6029 49.6527 39.3847 49.5244 39.2036 49.3615C39.0218 49.1952 38.8808 48.9986 38.7891 48.7835C38.5927 48.3063 38.5927 47.7847 38.7891 47.3076C38.8822 47.0923 39.023 46.8951 39.2036 46.7271C39.3862 46.5694 39.6043 46.446 39.8443 46.3647C40.3774 46.1846 40.9688 46.1846 41.502 46.3647C41.7442 46.4502 41.9633 46.5784 42.1454 46.7414C42.3249 46.906 42.4648 47.1001 42.5571 47.3123C42.6581 47.5495 42.708 47.8009 42.7043 48.0538ZM42.1318 48.0538C42.1361 47.8527 42.101 47.6525 42.0282 47.4615C41.9671 47.298 41.8677 47.1472 41.7364 47.0185C41.6086 46.8968 41.4512 46.8013 41.2757 46.739C40.8878 46.6095 40.4584 46.6095 40.0706 46.739C39.895 46.8013 39.7376 46.8968 39.6098 47.0185C39.4767 47.1464 39.3763 47.2974 39.3154 47.4615C39.1766 47.8472 39.1766 48.2604 39.3154 48.6461C39.3769 48.81 39.4772 48.9609 39.6098 49.0891C39.7378 49.2101 39.8952 49.3048 40.0706 49.3663C40.4591 49.4925 40.8871 49.4925 41.2757 49.3663C41.451 49.3048 41.6084 49.2101 41.7364 49.0891C41.8672 48.9601 41.9664 48.8094 42.0282 48.6461C42.1013 48.4552 42.1364 48.2549 42.1318 48.0538Z"/>
<path d="M47.0013 48.6747L47.0585 48.8074C47.0803 48.76 47.0994 48.7173 47.1212 48.6747C47.142 48.6302 47.1657 48.5867 47.1921 48.5444L48.5853 46.3438C48.6126 46.3059 48.6371 46.2823 48.6644 46.2751C48.7015 46.2653 48.7402 46.2613 48.7789 46.2633H49.1906V49.8425H48.7026V47.2108C48.7026 47.1776 48.7026 47.1397 48.7026 47.0995C48.6999 47.0585 48.6999 47.0173 48.7026 46.9763L47.3012 49.2077C47.2834 49.2411 47.2549 49.2694 47.2191 49.2891C47.1833 49.3089 47.1418 49.3192 47.0994 49.319H47.0203C46.9779 49.3195 46.9362 49.3093 46.9003 49.2895C46.8645 49.2697 46.8361 49.2413 46.8186 49.2077L45.3763 46.9621C45.3763 47.0047 45.3763 47.0474 45.3763 47.09C45.3763 47.1326 45.3763 47.1705 45.3763 47.2037V49.8354H44.9046V46.2633H45.3163C45.355 46.2613 45.3937 46.2653 45.4308 46.2751C45.4646 46.2897 45.4916 46.314 45.5072 46.3438L46.9304 48.5468C46.9583 48.5875 46.9821 48.6303 47.0013 48.6747Z"/>
<path d="M52.2443 48.4969V49.8376H51.699V46.2632H52.915C53.1445 46.2594 53.3734 46.2857 53.5939 46.3413C53.7704 46.3848 53.934 46.4607 54.0737 46.564C54.1948 46.6608 54.2882 46.7808 54.3464 46.9146C54.4107 47.0604 54.4422 47.2156 54.4391 47.3717C54.4415 47.5285 54.4072 47.684 54.3382 47.8289C54.2726 47.966 54.1719 48.0884 54.0437 48.1866C53.9038 48.2941 53.7394 48.3749 53.5612 48.4234C53.3489 48.4824 53.1269 48.5104 52.9041 48.5063L52.2443 48.4969ZM52.2443 48.1131H52.9041C53.0474 48.1148 53.1901 48.0964 53.3267 48.0587C53.4394 48.0257 53.5432 47.9733 53.632 47.9047C53.714 47.8391 53.7774 47.7581 53.8174 47.6678C53.8621 47.5723 53.8843 47.4701 53.8829 47.367C53.8892 47.2676 53.8706 47.1683 53.8282 47.0758C53.7858 46.9834 53.7207 46.9 53.6375 46.8317C53.4292 46.6904 53.1676 46.6219 52.9041 46.6398H52.2443V48.1131Z"/>
<path d="M59.573 49.8424H59.1422C59.099 49.8438 59.0566 49.8321 59.0223 49.8092C58.9913 49.7869 58.967 49.7585 58.9514 49.7263L58.5806 48.8616H56.7184L56.334 49.7263C56.3198 49.7579 56.2963 49.7857 56.2658 49.8069C56.2312 49.8311 56.1876 49.8437 56.1431 49.8424H55.7123L57.3482 46.2628H57.9153L59.573 49.8424ZM56.8738 48.5134H58.4115L57.7626 47.0564C57.713 46.9468 57.6721 46.8344 57.64 46.72L57.5772 46.9072C57.5582 46.964 57.5363 47.0162 57.5173 47.0588L56.8738 48.5134Z"/>
<path d="M61.9287 46.2795C61.9613 46.295 61.9893 46.3169 62.0105 46.3434L64.3962 49.0417C64.3962 48.9991 64.3962 48.9564 64.3962 48.9161C64.3962 48.8759 64.3962 48.8356 64.3962 48.7977V46.2629H64.8842V49.8424H64.6116C64.5728 49.8434 64.5344 49.8361 64.4998 49.8211C64.4661 49.804 64.4365 49.7815 64.4125 49.7548L62.0296 47.0589C62.0322 47.0999 62.0322 47.141 62.0296 47.1821C62.0296 47.2223 62.0296 47.2579 62.0296 47.291V49.8424H61.5416V46.2629H61.8306C61.8643 46.2621 61.8978 46.2677 61.9287 46.2795Z"/>
<path d="M68.903 48.4188V49.8402H68.3577V48.4188L66.85 46.2631H67.338C67.3801 46.2609 67.4216 46.2718 67.4553 46.2938C67.4849 46.3168 67.5098 46.3441 67.5289 46.3744L68.4722 47.765C68.5104 47.8242 68.5431 47.8787 68.5704 47.9308C68.5977 47.9829 68.6195 48.0327 68.6386 48.0824L68.7094 47.9284C68.7359 47.8721 68.7669 47.8175 68.8021 47.765L69.7319 46.3649C69.7514 46.337 69.7753 46.3115 69.8028 46.2891C69.8351 46.2646 69.8771 46.2518 69.92 46.2536H70.4135L68.903 48.4188Z"/>
<path d="M46.7313 40.2561C46.9685 40.2822 47.2085 40.3035 47.4511 40.3225C51.13 38.8926 54.2421 36.5523 56.3986 33.5942C58.5551 30.636 59.6602 27.1912 59.5758 23.6904L55.5215 20.1678C56.3458 23.8951 55.9602 27.7482 54.4078 31.2959C52.8554 34.8437 50.1975 37.9461 46.7313 40.2561Z"/>
<path d="M45.2836 40.0923L45.3927 40.1112C49.0966 37.8094 51.9205 34.5951 53.4992 30.8839C55.0779 27.1727 55.3388 23.1353 54.2483 19.2939L48.4736 14.2767C50.8093 18.4008 51.7495 23.0162 51.1847 27.5862C50.62 32.1562 48.5737 36.493 45.2836 40.0923Z"/>
<path d="M64.8679 27.8265C63.8868 31.6731 61.504 35.1423 58.0735 37.7189C57.0716 38.4755 55.9909 39.1496 54.8453 39.7324C57.6388 39.019 60.2064 37.7578 62.3502 36.046C64.4939 34.3341 66.1566 32.2174 67.2099 29.859L64.8679 27.8265Z"/>
<path d="M63.949 27.2601L60.6146 24.3629C60.5508 27.666 59.47 30.894 57.4845 33.7114C55.499 36.5287 52.6813 38.8327 49.3242 40.3837H49.3406C50.0887 40.3835 50.8362 40.3447 51.579 40.2676C54.7164 39.155 57.488 37.3849 59.6464 35.1152C61.8049 32.8455 63.283 30.1469 63.949 27.2601Z"/>
<path d="M45.7662 12.1609L41.7883 8.69995C38.2322 9.89391 35.1737 11.9928 33.0133 14.722C30.8529 17.4512 29.6911 20.6835 29.68 23.9959V23.9959C29.6933 27.656 31.1112 31.2077 33.7092 34.0888C36.3072 36.9699 39.937 39.016 44.024 39.903C47.6724 36.041 49.8085 31.2687 50.1218 26.2798C50.4351 21.2908 48.9094 16.3449 45.7662 12.1609Z"/>
<path d="M73.14 26.7273C73.1256 22.3848 71.1338 18.2238 67.5996 15.1532C64.0655 12.0826 59.2763 10.352 54.2783 10.3395C51.9687 10.3374 49.6788 10.7077 47.5248 11.4315L71.8804 32.5926C72.7143 30.7221 73.1414 28.7333 73.14 26.7273Z"/>
</symbol>
<symbol id="icon-company-4" viewBox="0 0 106 60">
<path d="M24.1462 21.1028H24.1433C21.7453 21.1028 19.8013 22.8304 19.8013 24.9615V24.964C19.8013 27.0951 21.7453 28.8227 24.1433 28.8227H24.1462C26.5442 28.8227 28.4882 27.0951 28.4882 24.964V24.9615C28.4882 22.8304 26.5442 21.1028 24.1462 21.1028Z"/>
<path d="M56.195 19.8693C56.1882 16.9093 54.8623 14.0722 52.5074 11.979C50.1525 9.88568 46.9604 8.70667 43.6297 8.69995V8.69995C40.298 8.70533 37.1045 9.88374 34.7484 11.9772C32.3922 14.0706 31.0655 16.9084 31.0587 19.8693V36.1921C31.0587 36.1921 56.1922 33.7044 56.195 19.8718V19.8693Z"/>
<path d="M11 41.5495C11.006 43.6091 11.9291 45.5828 13.5676 47.0394C15.2061 48.496 17.4267 49.317 19.7442 49.3231C22.0612 49.317 24.2814 48.4963 25.9197 47.0403C27.5581 45.5843 28.4816 43.6112 28.4884 41.552V30.1943C28.4884 30.1943 11 31.9266 11 41.5495ZM19.7442 43.5844C19.2913 43.5844 18.8486 43.4651 18.472 43.2415C18.0955 43.0179 17.802 42.7001 17.6287 42.3282C17.4554 41.9564 17.41 41.5472 17.4984 41.1525C17.5867 40.7577 17.8048 40.3951 18.125 40.1105C18.4453 39.8259 18.8533 39.6321 19.2975 39.5536C19.7416 39.4751 20.202 39.5154 20.6205 39.6694C21.0389 39.8234 21.3965 40.0843 21.6481 40.4189C21.8997 40.7535 22.034 41.147 22.034 41.5495C22.0351 41.8173 21.9767 42.0828 21.8622 42.3306C21.7476 42.5783 21.5791 42.8036 21.3664 42.9933C21.1536 43.1831 20.9008 43.3337 20.6224 43.4364C20.3441 43.5392 20.0456 43.5921 19.7442 43.5921V43.5844Z"/>
<path d="M37.4177 42.4637H35.7302V44.2069H34.8513V39.9413H37.6286V40.6532H35.7302V41.7548H37.4177V42.4637ZM41.6423 42.1708C41.6423 42.5907 41.5681 42.9589 41.4196 43.2753C41.2712 43.5917 41.0583 43.8358 40.7809 44.0077C40.5056 44.1796 40.1891 44.2655 39.8317 44.2655C39.4782 44.2655 39.1628 44.1805 38.8854 44.0106C38.6081 43.8407 38.3932 43.5985 38.2409 43.2841C38.0886 42.9677 38.0114 42.6044 38.0095 42.1942V41.9833C38.0095 41.5634 38.0847 41.1942 38.235 40.8759C38.3874 40.5555 38.6013 40.3104 38.8766 40.1405C39.154 39.9686 39.4704 39.8827 39.8259 39.8827C40.1813 39.8827 40.4968 39.9686 40.7722 40.1405C41.0495 40.3104 41.2634 40.5555 41.4138 40.8759C41.5661 41.1942 41.6423 41.5624 41.6423 41.9803V42.1708ZM40.7516 41.9774C40.7516 41.5302 40.6716 41.1903 40.5114 40.9579C40.3513 40.7255 40.1227 40.6093 39.8259 40.6093C39.5309 40.6093 39.3034 40.7245 39.1432 40.955C38.9831 41.1835 38.902 41.5194 38.9001 41.9628V42.1708C38.9001 42.6063 38.9802 42.9442 39.1403 43.1844C39.3005 43.4247 39.5309 43.5448 39.8317 43.5448C40.1266 43.5448 40.3532 43.4296 40.5114 43.1991C40.6696 42.9667 40.7497 42.6288 40.7516 42.1854V41.9774ZM44.4929 43.0878C44.4929 42.9218 44.4343 42.7948 44.3171 42.7069C44.1999 42.6171 43.989 42.5233 43.6843 42.4257C43.3796 42.326 43.1384 42.2284 42.9606 42.1327C42.4763 41.871 42.2341 41.5184 42.2341 41.0751C42.2341 40.8446 42.2985 40.6395 42.4274 40.4598C42.5583 40.2782 42.7448 40.1366 42.987 40.035C43.2311 39.9335 43.5046 39.8827 43.8073 39.8827C44.112 39.8827 44.3835 39.9384 44.6218 40.0497C44.86 40.1591 45.0446 40.3143 45.1755 40.5155C45.3083 40.7167 45.3747 40.9452 45.3747 41.201H44.4958C44.4958 41.0057 44.4343 40.8544 44.3112 40.7469C44.1882 40.6376 44.0153 40.5829 43.7927 40.5829C43.5778 40.5829 43.4108 40.6288 43.2917 40.7206C43.1725 40.8104 43.113 40.9296 43.113 41.078C43.113 41.2167 43.1823 41.3329 43.321 41.4266C43.4616 41.5204 43.6677 41.6083 43.9391 41.6903C44.4391 41.8407 44.8034 42.0272 45.0319 42.2499C45.2604 42.4725 45.3747 42.7499 45.3747 43.0819C45.3747 43.451 45.235 43.7411 44.9557 43.952C44.6765 44.161 44.3005 44.2655 43.8278 44.2655C43.4997 44.2655 43.2009 44.2059 42.9313 44.0868C42.6618 43.9657 42.4557 43.8007 42.3132 43.5917C42.1725 43.3827 42.1022 43.1405 42.1022 42.8651H42.9841C42.9841 43.3358 43.2653 43.5712 43.8278 43.5712C44.0368 43.5712 44.1999 43.5292 44.3171 43.4452C44.4343 43.3593 44.4929 43.2401 44.4929 43.0878ZM49.1833 40.6532H47.8766V44.2069H46.9977V40.6532H45.7087V39.9413H49.1833V40.6532ZM52.2536 42.3583H50.5661V43.5009H52.5466V44.2069H49.6872V39.9413H52.5407V40.6532H50.5661V41.6698H52.2536V42.3583ZM54.6413 42.6454H53.9411V44.2069H53.0622V39.9413H54.6472C55.1511 39.9413 55.5397 40.0536 55.8132 40.2782C56.0866 40.5028 56.2233 40.8202 56.2233 41.2303C56.2233 41.5214 56.1599 41.7645 56.0329 41.9598C55.9079 42.1532 55.7175 42.3075 55.4616 42.4227L56.3845 44.1659V44.2069H55.4411L54.6413 42.6454ZM53.9411 41.9335H54.6501C54.8708 41.9335 55.0417 41.8778 55.1628 41.7665C55.2839 41.6532 55.3444 41.4979 55.3444 41.3007C55.3444 41.0995 55.2868 40.9413 55.1716 40.826C55.0583 40.7108 54.8835 40.6532 54.6472 40.6532H53.9411V41.9335ZM59.2673 42.704V44.2069H58.3884V39.9413H60.0524C60.3727 39.9413 60.654 39.9999 60.8962 40.1171C61.1403 40.2343 61.3278 40.4012 61.4587 40.618C61.5895 40.8329 61.655 41.078 61.655 41.3534C61.655 41.7714 61.5114 42.1014 61.2243 42.3436C60.9391 42.5839 60.5436 42.704 60.0378 42.704H59.2673ZM59.2673 41.9921H60.0524C60.2849 41.9921 60.4616 41.9374 60.5827 41.828C60.7057 41.7186 60.7673 41.5624 60.7673 41.3593C60.7673 41.1503 60.7057 40.9813 60.5827 40.8524C60.4597 40.7235 60.2897 40.6571 60.0729 40.6532H59.2673V41.9921ZM64.8278 42.3583H63.1403V43.5009H65.1208V44.2069H62.2614V39.9413H65.1149V40.6532H63.1403V41.6698H64.8278V42.3583ZM68.9059 40.6532H67.5993V44.2069H66.7204V40.6532H65.4313V39.9413H68.9059V40.6532ZM71.9763 42.3583H70.2888V43.5009H72.2692V44.2069H69.4099V39.9413H72.2634V40.6532H70.2888V41.6698H71.9763V42.3583ZM74.364 42.6454H73.6638V44.2069H72.7849V39.9413H74.3698C74.8737 39.9413 75.2624 40.0536 75.5358 40.2782C75.8093 40.5028 75.946 40.8202 75.946 41.2303C75.946 41.5214 75.8825 41.7645 75.7556 41.9598C75.6306 42.1532 75.4401 42.3075 75.1843 42.4227L76.1071 44.1659V44.2069H75.1638L74.364 42.6454ZM73.6638 41.9335H74.3727C74.5934 41.9335 74.7643 41.8778 74.8854 41.7665C75.0065 41.6532 75.0671 41.4979 75.0671 41.3007C75.0671 41.0995 75.0095 40.9413 74.8942 40.826C74.7809 40.7108 74.6061 40.6532 74.3698 40.6532H73.6638V41.9335ZM78.8288 43.0878C78.8288 42.9218 78.7702 42.7948 78.653 42.7069C78.5358 42.6171 78.3249 42.5233 78.0202 42.4257C77.7155 42.326 77.4743 42.2284 77.2966 42.1327C76.8122 41.871 76.57 41.5184 76.57 41.0751C76.57 40.8446 76.6345 40.6395 76.7634 40.4598C76.8942 40.2782 77.0807 40.1366 77.3229 40.035C77.5671 39.9335 77.8405 39.8827 78.1432 39.8827C78.4479 39.8827 78.7194 39.9384 78.9577 40.0497C79.196 40.1591 79.3806 40.3143 79.5114 40.5155C79.6442 40.7167 79.7106 40.9452 79.7106 41.201H78.8317C78.8317 41.0057 78.7702 40.8544 78.6472 40.7469C78.5241 40.6376 78.3513 40.5829 78.1286 40.5829C77.9138 40.5829 77.7468 40.6288 77.6276 40.7206C77.5085 40.8104 77.4489 40.9296 77.4489 41.078C77.4489 41.2167 77.5182 41.3329 77.6569 41.4266C77.7975 41.5204 78.0036 41.6083 78.2751 41.6903C78.7751 41.8407 79.1393 42.0272 79.3679 42.2499C79.5964 42.4725 79.7106 42.7499 79.7106 43.0819C79.7106 43.451 79.571 43.7411 79.2917 43.952C79.0124 44.161 78.6364 44.2655 78.1638 44.2655C77.8356 44.2655 77.5368 44.2059 77.2673 44.0868C76.9977 43.9657 76.7917 43.8007 76.6491 43.5917C76.5085 43.3827 76.4382 43.1405 76.4382 42.8651H77.32C77.32 43.3358 77.6013 43.5712 78.1638 43.5712C78.3727 43.5712 78.5358 43.5292 78.653 43.4452C78.7702 43.3593 78.8288 43.2401 78.8288 43.0878Z"/>
</symbol>
<symbol id="icon-company-5" viewBox="0 0 63 47">
<path d="M4.7569 38.7352C5.00058 39.0114 5.13038 39.3572 5.12358 39.7122C5.13601 39.9437 5.0914 40.1749 4.99304 40.3885C4.89469 40.6021 4.74511 40.7927 4.55539 40.9463C4.08201 41.2736 3.49555 41.4336 2.90369 41.3969H0V35.2055H2.84423C3.40566 35.1713 3.96263 35.3167 4.41995 35.6168C4.60363 35.7576 4.74908 35.9355 4.84482 36.1365C4.94055 36.3376 4.98396 36.5562 4.97162 36.7753C4.98831 37.1168 4.87115 37.4526 4.64128 37.722C4.42059 37.968 4.1156 38.1385 3.77579 38.2059C4.16101 38.2703 4.50873 38.4579 4.7569 38.7352ZM1.35109 37.8006H2.56674C2.84303 37.8193 3.11743 37.7463 3.33974 37.5949C3.43101 37.5192 3.50203 37.4252 3.54728 37.3203C3.59254 37.2154 3.61082 37.1024 3.60071 36.99C3.60929 36.878 3.59063 36.7657 3.54607 36.661C3.50151 36.5564 3.43217 36.4622 3.34304 36.3851C3.11408 36.2294 2.83115 36.1553 2.54692 36.1764H1.35109V37.8006ZM3.45866 40.175C3.55623 40.0974 3.63292 40.0003 3.68277 39.8912C3.73262 39.7821 3.75428 39.6639 3.74606 39.5458C3.7535 39.4264 3.73085 39.307 3.67988 39.1969C3.6289 39.0868 3.55095 38.9888 3.45205 38.9107C3.21421 38.7492 2.9217 38.6699 2.6262 38.6868H1.35109V40.3897H2.64272C2.93345 40.4051 3.22122 40.3293 3.45866 40.175Z"/>
<path d="M10.5709 41.3969L8.98857 38.9772H8.39396V41.3969H7.03296V35.2055H9.60961C10.2591 35.164 10.9012 35.3524 11.4034 35.7318C11.7635 36.0678 11.9808 36.5106 12.0159 36.9803C12.051 37.45 11.9018 37.9158 11.595 38.2937C11.2771 38.6271 10.8428 38.8494 10.3661 38.9228L12.0508 41.3969H10.5709ZM8.39396 38.1333H9.50721C10.2802 38.1333 10.6667 37.8208 10.6667 37.1957C10.6746 37.0681 10.6534 36.9403 10.6045 36.8205C10.5556 36.7008 10.48 36.5916 10.3826 36.5C10.1383 36.314 9.82374 36.2238 9.50721 36.249H8.38075L8.39396 38.1333Z"/>
<path d="M18.0102 40.1506H15.2981L14.8191 41.3968H13.392L15.8828 35.2749H17.4255L19.9063 41.3968H18.4793L18.0102 40.1506ZM17.6468 39.213L16.6558 36.5997L15.6648 39.213H17.6468Z"/>
<path d="M27.3224 41.3969H25.9713L22.9421 37.1866V41.3969H21.5943V35.2054H22.9421L25.9713 39.44V35.2054H27.3224V41.3969Z"/>
<path d="M35.0326 39.9149C34.7532 40.3823 34.3276 40.7626 33.8103 41.0068C33.2222 41.2788 32.5695 41.4128 31.9109 41.397H29.506V35.2055H31.9109C32.5684 35.1898 33.2202 35.3206 33.8103 35.5866C34.3275 35.8253 34.7536 36.2017 35.0326 36.6664C35.3107 37.17 35.4556 37.7263 35.4556 38.2906C35.4556 38.8549 35.3107 39.4113 35.0326 39.9149ZM33.4866 39.7667C33.8722 39.3554 34.0842 38.8312 34.0842 38.2891C34.0842 37.7471 33.8722 37.2229 33.4866 36.8116C33.0205 36.439 32.4127 36.2499 31.7952 36.2853H30.8571V40.293H31.7952C32.4127 40.3283 33.0205 40.1392 33.4866 39.7667Z"/>
<path d="M18.8558 0.766724C18.8558 0.766724 36.2945 6.79486 35.9245 15.518V30.2722C35.9245 30.2722 18.4991 24.2411 18.8624 15.518L18.8558 0.766724Z"/>
<path d="M51.4603 26.8181C54.7538 24.7428 58.5633 23.4574 62.5399 23.0796V18.4609C57.9579 20.0779 54.0709 23.0098 51.4603 26.8181Z"/>
<path d="M49.4816 28.2095C52.1773 23.2396 56.8505 19.4046 62.54 17.4932V4.18469C62.54 4.18469 37.705 12.7717 38.2303 25.1939V46.2001C38.2303 46.2001 39.3369 45.816 41.0778 45.0961C41.0778 44.4247 41.0778 43.7472 41.1571 43.0666C41.6711 37.2996 44.6654 31.9556 49.4816 28.2095Z"/>
<path d="M47.1197 36.0131C47.2502 34.5563 47.5413 33.1152 47.9885 31.712C44.9896 34.9471 43.1734 38.9614 42.7956 43.1906C42.7592 43.5899 42.7394 43.9891 42.7295 44.4005C44.14 43.7804 45.7818 43.0061 47.5062 42.0957C47.0662 40.0948 46.936 38.0472 47.1197 36.0131Z"/>
<path d="M48.1075 36.0887C47.9421 37.929 48.0454 39.7813 48.4147 41.5966C55.1999 37.8793 62.8241 32.1355 62.5301 25.1939V24.589C57.6824 25.0856 53.1468 27.026 49.6204 30.112C48.7948 32.0244 48.2849 34.0387 48.1075 36.0887Z"/>
</symbol>
<symbol id="icon-company-6" viewBox="0 0 94 45">
<path d="M47.425 21.4082C46.9819 20.8184 46.7699 20.1213 46.8203 19.4196V16.5364C46.8203 15.6526 47.0207 14.9809 47.4216 14.5214C47.8224 14.0619 48.511 13.8331 49.4871 13.8351C50.4044 13.8351 51.0555 14.0306 51.4405 14.4217C51.8605 14.9207 52.0648 15.5309 52.018 16.1463V16.8239H50.3772V16.1375C50.383 15.9129 50.3671 15.6882 50.3296 15.4659C50.306 15.3138 50.2234 15.1732 50.0952 15.067C49.9267 14.9525 49.7145 14.897 49.5007 14.9115C49.2759 14.897 49.0529 14.9556 48.8756 15.0758C48.7327 15.1935 48.6374 15.3477 48.6038 15.5157C48.5567 15.7511 48.5351 15.9897 48.5393 16.2285V19.7276C48.5134 20.0652 48.5858 20.403 48.7499 20.7102C48.8315 20.8141 48.9448 20.8965 49.0774 20.9483C49.2099 21.0001 49.3564 21.0192 49.5007 21.0035C49.7109 21.0184 49.9195 20.9615 50.0816 20.8451C50.2153 20.7305 50.3013 20.581 50.3262 20.4198C50.3645 20.1877 50.3816 19.9533 50.3772 19.7188V19.009H52.018V19.6572C52.0641 20.2988 51.8648 20.9356 51.4507 21.4698C51.0736 21.8981 50.4315 22.1122 49.4871 22.1122C48.5427 22.1122 47.8292 21.8834 47.425 21.4082Z"/>
<path d="M54.2569 21.4376C53.8424 20.9888 53.6352 20.3347 53.6352 19.4695V16.4367C53.6352 15.5803 53.8424 14.9321 54.2569 14.4921C54.6713 14.0521 55.3644 13.8331 56.3359 13.8351C57.3007 13.8351 57.9904 14.0541 58.4048 14.4921C58.8193 14.9321 59.0299 15.5803 59.0299 16.4367V19.4695C59.0299 20.3259 58.8193 20.9829 58.398 21.4346C57.9768 21.8863 57.2906 22.1122 56.3359 22.1122C55.3813 22.1122 54.6747 21.8834 54.2569 21.4376ZM57.1003 20.7102C57.2487 20.4291 57.3163 20.1212 57.2974 19.8127V16.0994C57.3164 15.7969 57.2499 15.4949 57.1037 15.2195C57.0205 15.1134 56.9043 15.0296 56.7686 14.9777C56.6328 14.9259 56.4829 14.908 56.3359 14.9262C56.1885 14.9085 56.0383 14.9265 55.9021 14.9783C55.7659 15.0301 55.6491 15.1136 55.5648 15.2195C55.4154 15.4941 55.3477 15.7965 55.3678 16.0994V19.8303C55.3471 20.1389 55.4148 20.4471 55.5648 20.7278C55.6604 20.8224 55.7785 20.8982 55.9109 20.9502C56.0433 21.0021 56.1871 21.029 56.3326 21.029C56.478 21.029 56.6218 21.0021 56.7542 20.9502C56.8866 20.8982 57.0047 20.8224 57.1003 20.7278V20.7102Z"/>
<path d="M61.0035 13.9236H62.7701L64.0984 19.5192L65.4573 13.9236H67.1763L67.3496 22.0003H66.079L65.9431 16.3871L64.6318 22.0003H63.6126L62.2537 16.3665L62.128 22.0003H60.8439L61.0035 13.9236Z"/>
<path d="M69.3302 13.9236H72.0819C73.6673 13.9236 74.4599 14.688 74.4599 16.217C74.4599 17.6814 73.6254 18.4126 71.9562 18.4106H71.0186V22.0003H69.32L69.3302 13.9236ZM71.6811 17.3754C71.8489 17.3938 72.0193 17.3805 72.1806 17.3364C72.3419 17.2924 72.4902 17.2186 72.6153 17.1203C72.8101 16.8475 72.896 16.5271 72.8599 16.2082C72.8688 15.9618 72.8414 15.7154 72.7783 15.475C72.7541 15.3947 72.7116 15.3194 72.6533 15.2534C72.5949 15.1874 72.522 15.1322 72.4386 15.0908C72.2028 14.9932 71.9422 14.9488 71.6811 14.9618H71.022V17.3754H71.6811Z"/>
<path d="M76.9094 13.9236H78.7337L80.6055 22.0003H79.0225L78.6522 20.138H77.0249L76.6444 22.0003H75.0376L76.9094 13.9236ZM78.4687 19.2025L77.8334 15.8123L77.1982 19.2025H78.4687Z"/>
<path d="M82.1173 13.9236H83.3063L85.5825 18.5309V13.9236H86.9923V22.0003H85.861L83.5713 17.1906V22.0003H82.1139L82.1173 13.9236Z"/>
<path d="M90.2945 18.9208L88.4022 13.9349H89.9955L91.1506 17.1376L92.2343 13.9349H93.7936L91.9251 18.9208V22.0003H90.2945V18.9208Z"/>
<path d="M50.0477 25.5316V25.954H48.6617V29.2359H48.0807V25.954H46.6879V25.5316H50.0477Z"/>
<path d="M54.3927 29.2362H53.9442C53.8987 29.2386 53.8538 29.2261 53.8185 29.201C53.7846 29.1795 53.7587 29.15 53.7438 29.116L53.3429 28.2361H51.4201L51.0192 29.116C51.0078 29.1528 50.9869 29.1868 50.958 29.2157C50.9225 29.2402 50.8778 29.2527 50.8324 29.2509H50.3839L52.0825 25.5468H52.6737L54.3927 29.2362ZM51.5797 27.8607H53.1833L52.5038 26.3533C52.4537 26.2393 52.4117 26.1227 52.3781 26.0043C52.3543 26.0747 52.3339 26.1421 52.3136 26.2008L52.2524 26.3562L51.5797 27.8607Z"/>
<path d="M57.3211 28.8724C57.4275 28.8772 57.5341 28.8772 57.6404 28.8724C57.7323 28.8642 57.8232 28.8495 57.9122 28.8284C57.9954 28.8107 58.0772 28.7882 58.1568 28.7609C58.2316 28.7345 58.3063 28.7022 58.3844 28.67V27.8369H57.705C57.6882 27.8378 57.6714 27.8356 57.6556 27.8305C57.6398 27.8255 57.6254 27.8177 57.6133 27.8076C57.6021 27.7993 57.5933 27.7889 57.5874 27.7772C57.5815 27.7655 57.5787 27.7529 57.5793 27.7401V27.4556H58.8974V28.8753C58.7898 28.9417 58.6762 29.0006 58.5577 29.0513C58.4366 29.1029 58.3104 29.1451 58.1806 29.1774C58.0417 29.2127 57.8996 29.2382 57.7559 29.2537C57.5912 29.2695 57.4257 29.2773 57.26 29.2771C56.967 29.2793 56.6763 29.2325 56.4038 29.1393C56.1495 29.051 55.9184 28.9193 55.7244 28.7521C55.5353 28.5832 55.3864 28.3839 55.2862 28.1655C55.1791 27.9199 55.1261 27.6593 55.1299 27.397C55.1263 27.133 55.1781 26.8706 55.2828 26.6226C55.3805 26.4031 55.5297 26.2033 55.721 26.036C55.9149 25.8693 56.1461 25.7386 56.4005 25.6517C56.6914 25.5572 57.0001 25.5105 57.3109 25.5138C57.4691 25.5137 57.627 25.5245 57.7831 25.5461C57.9212 25.5655 58.0567 25.597 58.1874 25.64C58.3062 25.6785 58.4201 25.7277 58.5271 25.7866C58.6312 25.8445 58.7301 25.9092 58.8227 25.9802L58.6596 26.209C58.6468 26.2299 58.6278 26.2475 58.6045 26.2598C58.5812 26.2722 58.5545 26.279 58.5271 26.2794C58.4895 26.2784 58.453 26.2682 58.4218 26.2501C58.3708 26.2266 58.3165 26.1973 58.2553 26.1621C58.1831 26.123 58.1069 26.0896 58.0277 26.0624C57.9265 26.0273 57.8219 25.9998 57.7152 25.9802C57.5729 25.9576 57.4284 25.9468 57.2837 25.948C57.0596 25.9458 56.8371 25.9807 56.6281 26.0506C56.439 26.1161 56.2686 26.2162 56.1287 26.3439C55.9879 26.4771 55.8803 26.6339 55.8127 26.8045C55.661 27.2056 55.661 27.6381 55.8127 28.0393C55.8871 28.2135 56.0028 28.3724 56.1525 28.5057C56.2918 28.6328 56.4609 28.7328 56.6485 28.799C56.8645 28.8631 57.0934 28.888 57.3211 28.8724Z"/>
<path d="M62.7362 28.8136H64.5911V29.2359H62.1689V25.5316H62.7498L62.7362 28.8136Z"/>
<path d="M66.5208 29.2359H65.9398V25.5316H66.5208V29.2359Z"/>
<path d="M68.6814 25.5492C68.7159 25.5662 68.746 25.5892 68.7697 25.6167L71.253 28.409C71.2497 28.3651 71.2497 28.321 71.253 28.277C71.253 28.236 71.253 28.1949 71.253 28.1568V25.517H71.7592V29.2362H71.4671C71.4238 29.2392 71.3804 29.2321 71.3414 29.2156C71.3061 29.1972 71.275 29.1733 71.2496 29.1452L68.7697 26.3558C68.7697 26.3998 68.7697 26.4409 68.7697 26.482C68.7697 26.523 68.7697 26.5612 68.7697 26.5964V29.2362H68.2839V25.5316H68.5863C68.6191 25.5317 68.6515 25.5377 68.6814 25.5492Z"/>
<path d="M76.0364 25.5316V25.9393H73.9777V27.1624H75.6457V27.5554H73.9777V28.8195H76.0364V29.2272H73.3798V25.5316H76.0364Z"/>
<path d="M15.1617 2.65551L40.9568 8.97882V31.1368L15.1617 24.8164V2.65551ZM13.5073 0.766724V25.8928L42.6079 33.0285V7.90538L13.5073 0.766724Z"/>
<path d="M29.1039 44.6922L0 37.5505V12.4271L29.1039 19.5659V44.6922Z"/>
<path d="M13.9897 2.37099L39.4484 8.615L28.6215 17.9649L3.1594 11.7179L13.9897 2.37099ZM13.5073 0.766724L0 12.4277L29.1039 19.5662L42.6078 7.90525L13.5073 0.766724Z"/>
<path d="M30.7414 43.2788L42.6078 33.0315L30.7414 30.1193V43.2788Z"/>
</symbol>
<symbol id="icon-computer" viewBox="0 0 32 32">
<path d="M1.599 28.291h25.586c0 0 0 0 0 0 0.883 0 1.599-0.716 1.599-1.599v0-2.132c0-0.883-0.716-1.599-1.599-1.599v0h-0.533v-13.294l3.028-2.868c0.207 0.104 0.452 0.166 0.711 0.166 0.888 0 1.608-0.72 1.608-1.608s-0.72-1.608-1.608-1.608c-0.888 0-1.608 0.72-1.608 1.608 0 0.247 0.056 0.481 0.155 0.69l-0.004-0.010-2.281 2.162v-1.23c0-0.883-0.716-1.599-1.599-1.599v0h-21.323c-0.883 0-1.599 0.716-1.599 1.599v15.992h-0.533c-0.883 0-1.599 0.716-1.599 1.599v0 2.132c0 0.883 0.716 1.599 1.599 1.599v0zM30.384 4.837c0.294 0 0.533 0.239 0.533 0.533s-0.239 0.533-0.533 0.533v0c-0.294 0-0.533-0.239-0.533-0.533s0.239-0.533 0.533-0.533v0zM3.198 6.969c0-0.294 0.239-0.533 0.533-0.533h21.323c0.294 0 0.533 0.239 0.533 0.533v2.239l-1.066 1.013v-2.185c0-0.295-0.239-0.534-0.534-0.534h-19.189c-0.294 0-0.534 0.239-0.534 0.533v13.327c0 0.294 0.239 0.533 0.534 0.533h19.189c0.295 0 0.534-0.239 0.534-0.533v-9.675l1.066-1.010v12.283h-22.389v-15.99zM7.996 13.899c-0.001 0-0.003 0-0.005 0-0.883 0-1.599 0.716-1.599 1.599s0.716 1.599 1.599 1.599c0.432 0 0.824-0.172 1.112-0.45l-0 0 1.853 0.93c0.215 0.107 0.476 0.057 0.636-0.123l3.939-4.431 3.872 2.902c0.208 0.155 0.498 0.139 0.686-0.039l3.365-3.188v8.131h-18.123v-12.261h18.123v2.661l-3.771 3.572-3.904-2.927c-0.088-0.067-0.2-0.107-0.32-0.107-0.158 0-0.3 0.069-0.398 0.178l-0 0.001-3.993 4.493-1.493-0.746c0.011-0.064 0.017-0.128 0.020-0.193 0-0.883-0.716-1.599-1.599-1.599v0zM8.529 15.498c0 0.294-0.239 0.533-0.533 0.533s-0.533-0.239-0.533-0.533v0c0-0.294 0.239-0.533 0.533-0.533s0.533 0.239 0.533 0.533v0zM11.727 24.027h5.33v0.533c0 0.294-0.238 0.533-0.533 0.533h-4.265c-0.294 0-0.533-0.239-0.533-0.533v0-0.533zM1.067 24.56c0-0.294 0.238-0.533 0.533-0.533h9.062v0.533c0 0.883 0.716 1.599 1.599 1.599v0h4.265c0.883 0 1.599-0.716 1.599-1.599v0-0.533h9.062c0.294 0 0.533 0.239 0.533 0.533v2.132c0 0.294-0.239 0.533-0.533 0.533h-25.586c-0 0-0 0-0 0-0.294 0-0.533-0.239-0.533-0.533 0 0 0 0 0 0v0-2.132z"></path>
</symbol>
<symbol id="icon-envelope" viewBox="0 0 16 12">
<path d="M14.5 0H1.50001C0.672854 0 0 0.672853 0 1.50001V10.5C0 11.3271 0.672854 12 1.50001 12H14.5C15.3271 12 16 11.3271 16 10.5V1.50001C16 0.672853 15.3271 0 14.5 0ZM14.5 0.999994C14.5679 0.999994 14.6325 1.01409 14.6916 1.0387L8 6.83838L1.30833 1.0387C1.36742 1.01412 1.43204 0.999994 1.49998 0.999994H14.5ZM14.5 11H1.50001C1.22414 11 0.999996 10.7759 0.999996 10.5V2.09521L7.67236 7.87792C7.76661 7.95944 7.8833 7.99999 8 7.99999C8.1167 7.99999 8.23339 7.95948 8.32764 7.87792L15 2.09521V10.5C15 10.7759 14.7759 11 14.5 11Z"></path>
</symbol>
<symbol id="icon-fb-1" viewBox="0 0 32 32">
<path d="M21.328 5.312h2.923v-5.088c-1.232-0.143-2.66-0.224-4.108-0.224-0.052 0-0.104 0-0.156 0l0.008-0c-4.213 0-7.099 2.65-7.099 7.52v4.48h-4.646v5.688h4.646v14.312h5.699v-14.31h4.459l0.707-5.688h-5.168v-3.922c0-1.643 0.443-2.768 2.734-2.768z"></path>
</symbol>
<symbol id="icon-fb-2" viewBox="0 0 18 32">
<path fill="#fff" style="fill: var(--color5, #fff)" d="M13.336 5.312h2.923v-5.088c-1.232-0.143-2.66-0.224-4.107-0.224-0.052 0-0.104 0-0.157 0l0.008-0c-4.213 0-7.099 2.65-7.099 7.52v4.48h-4.646v5.688h4.646v14.312h5.699v-14.31h4.461l0.709-5.69h-5.17v-3.92c0-1.643 0.443-2.768 2.734-2.768z"></path>
</symbol>
<symbol id="icon-full-check" viewBox="0 0 32 32">
<path fill="#fff" style="fill: var(--color5, #fff); stroke: var(--color5, #fff)" stroke="#fff" stroke-linejoin="miter" stroke-linecap="butt" stroke-miterlimit="4" stroke-width="0.4267" d="M6.308 16.537l-0.147-0.14-2.205 2.088 7.767 7.41 16.318-15.567-2.19-2.089-14.128 13.465-5.416-5.167z"></path>
</symbol>
<symbol id="icon-instagram-1" viewBox="0 0 32 32">
<path d="M31.968 9.408c-0.074-1.701-0.349-2.869-0.742-3.882-0.424-1.111-1.054-2.059-1.85-2.837l-0.001-0.001c-0.78-0.792-1.724-1.419-2.778-1.827l-0.054-0.018c-1.019-0.394-2.181-0.667-3.882-0.742-1.712-0.082-2.256-0.101-6.602-0.101-4.344 0-4.888 0.019-6.595 0.094-1.699 0.074-2.869 0.349-3.88 0.742-1.112 0.424-2.060 1.054-2.839 1.85l-0.001 0.001c-0.791 0.78-1.418 1.724-1.825 2.778l-0.018 0.054c-0.395 1.019-0.669 2.181-0.744 3.882-0.082 1.712-0.101 2.256-0.101 6.602 0 4.344 0.019 4.888 0.094 6.595 0.075 1.701 0.35 2.869 0.744 3.882 0.426 1.11 1.055 2.057 1.849 2.837l0.001 0.001c0.8 0.813 1.77 1.443 2.832 1.843 1.019 0.395 2.182 0.67 3.882 0.744 1.707 0.075 2.251 0.094 6.595 0.094 4.346 0 4.89-0.019 6.595-0.094 1.701-0.074 2.869-0.349 3.882-0.742 2.157-0.85 3.833-2.526 4.664-4.628l0.019-0.055c0.394-1.019 0.669-2.182 0.744-3.882 0.075-1.707 0.093-2.251 0.093-6.595s-0.006-4.888-0.080-6.595zM29.088 22.474c-0.070 1.563-0.333 2.406-0.55 2.97-0.552 1.399-1.64 2.486-3.004 3.024l-0.036 0.012c-0.56 0.219-1.411 0.482-2.968 0.55-1.688 0.075-2.194 0.094-6.464 0.094-4.269 0-4.782-0.019-6.464-0.094-1.563-0.069-2.406-0.331-2.97-0.55-0.721-0.269-1.334-0.676-1.836-1.192l-0.001-0.001c-0.517-0.503-0.924-1.117-1.184-1.803l-0.011-0.034c-0.218-0.563-0.48-1.413-0.549-2.97-0.075-1.688-0.094-2.195-0.094-6.464 0-4.27 0.019-4.784 0.094-6.464 0.069-1.563 0.331-2.406 0.549-2.97 0.269-0.722 0.678-1.337 1.198-1.837l0.002-0.002c0.504-0.517 1.119-0.923 1.806-1.182l0.034-0.011c0.56-0.219 1.411-0.48 2.968-0.55 1.688-0.074 2.195-0.093 6.464-0.093 4.275 0 4.782 0.019 6.464 0.093 1.563 0.069 2.406 0.331 2.97 0.55 0.693 0.256 1.325 0.662 1.837 1.194 0.531 0.52 0.938 1.144 1.195 1.84 0.218 0.56 0.48 1.411 0.549 2.968 0.075 1.688 0.094 2.194 0.094 6.464 0 4.269-0.019 4.768-0.094 6.458z"></path>
<path d="M16.059 7.782c-4.539 0.002-8.218 3.682-8.219 8.221v0c0.091 4.471 3.737 8.060 8.221 8.060s8.13-3.589 8.221-8.052l0-0.009c-0.001-4.54-3.681-8.22-8.221-8.221h-0zM16.059 21.334c-2.945-0-5.332-2.388-5.332-5.333s2.388-5.333 5.333-5.333c0 0 0.001 0 0.001 0h-0c2.946 0 5.334 2.388 5.334 5.334s-2.388 5.334-5.334 5.334v0zM26.525 7.458c0 1.060-0.86 1.92-1.92 1.92s-1.92-0.86-1.92-1.92v0c0-1.060 0.86-1.92 1.92-1.92s1.92 0.86 1.92 1.92v0z"></path>
</symbol>
<symbol id="icon-instagram-2" viewBox="0 0 32 32">
<path fill="#fff" style="fill: var(--color5, #fff)" d="M31.968 9.408c-0.074-1.701-0.349-2.869-0.742-3.882-0.424-1.111-1.054-2.059-1.85-2.837l-0.001-0.001c-0.78-0.792-1.724-1.419-2.778-1.827l-0.054-0.018c-1.019-0.394-2.181-0.667-3.882-0.742-1.712-0.082-2.256-0.101-6.602-0.101-4.344 0-4.888 0.019-6.595 0.094-1.699 0.074-2.869 0.349-3.88 0.742-1.112 0.424-2.060 1.054-2.839 1.85l-0.001 0.001c-0.791 0.78-1.418 1.724-1.825 2.778l-0.018 0.054c-0.395 1.019-0.669 2.181-0.744 3.882-0.082 1.712-0.101 2.256-0.101 6.602 0 4.344 0.019 4.888 0.094 6.595 0.075 1.701 0.35 2.869 0.744 3.882 0.426 1.11 1.055 2.057 1.849 2.837l0.001 0.001c0.8 0.813 1.77 1.443 2.832 1.843 1.019 0.395 2.182 0.67 3.882 0.744 1.707 0.075 2.251 0.094 6.595 0.094 4.346 0 4.89-0.019 6.595-0.094 1.701-0.074 2.869-0.349 3.882-0.742 2.157-0.85 3.833-2.526 4.664-4.628l0.019-0.055c0.394-1.019 0.669-2.182 0.744-3.882 0.075-1.707 0.093-2.251 0.093-6.595s-0.006-4.888-0.080-6.595zM29.088 22.474c-0.070 1.563-0.333 2.406-0.55 2.97-0.552 1.399-1.64 2.486-3.004 3.024l-0.036 0.012c-0.56 0.219-1.411 0.482-2.968 0.55-1.688 0.075-2.194 0.094-6.464 0.094-4.269 0-4.782-0.019-6.464-0.094-1.563-0.069-2.406-0.331-2.97-0.55-0.721-0.269-1.334-0.676-1.836-1.192l-0.001-0.001c-0.517-0.503-0.924-1.117-1.184-1.803l-0.011-0.034c-0.218-0.563-0.48-1.413-0.549-2.97-0.075-1.688-0.094-2.195-0.094-6.464 0-4.27 0.019-4.784 0.094-6.464 0.069-1.563 0.331-2.406 0.549-2.97 0.269-0.722 0.678-1.337 1.198-1.837l0.002-0.002c0.504-0.517 1.119-0.923 1.806-1.182l0.034-0.011c0.56-0.219 1.411-0.48 2.968-0.55 1.688-0.074 2.195-0.093 6.464-0.093 4.275 0 4.782 0.019 6.464 0.093 1.563 0.069 2.406 0.331 2.97 0.55 0.693 0.256 1.325 0.662 1.837 1.194 0.531 0.52 0.938 1.144 1.195 1.84 0.218 0.56 0.48 1.411 0.549 2.968 0.075 1.688 0.094 2.194 0.094 6.464 0 4.269-0.019 4.768-0.094 6.458z"></path>
<path fill="#fff" style="fill: var(--color5, #fff)" d="M16.059 7.782c-4.539 0.002-8.218 3.682-8.219 8.221v0c0 0 0 0.001 0 0.002 0 4.541 3.681 8.222 8.222 8.222s8.222-3.681 8.222-8.222c0-4.541-3.681-8.222-8.222-8.222-0.001 0-0.001 0-0.002 0h0zM16.059 21.334c-2.945-0-5.332-2.388-5.332-5.333s2.388-5.333 5.333-5.333c0 0 0.001 0 0.001 0h-0c2.946 0 5.334 2.388 5.334 5.334s-2.388 5.334-5.334 5.334v0zM26.525 7.458c0 1.060-0.86 1.92-1.92 1.92s-1.92-0.86-1.92-1.92v0c0-1.060 0.86-1.92 1.92-1.92s1.92 0.86 1.92 1.92v0z"></path>
</symbol>
<symbol id="icon-linkedin-1" viewBox="0 0 32 32">
<path d="M31.992 32h0.008v-11.738c0-5.741-1.237-10.163-7.947-10.163-3.227 0-5.392 1.77-6.277 3.45h-0.093v-2.914h-6.365v21.363h6.627v-10.578c0-2.786 0.528-5.48 3.978-5.48 3.398 0 3.448 3.179 3.448 5.658v10.402h6.621zM0.528 10.635h6.635v21.365h-6.635v-21.365zM3.843 0c-2.123 0-3.843 1.721-3.843 3.843v0c0 2.12 1.722 3.878 3.843 3.878 2.12 0 3.842-1.757 3.842-3.878s-1.72-3.841-3.841-3.843h-0z"></path>
</symbol>
<symbol id="icon-linkedin-2" viewBox="0 0 32 32">
<path fill="#fff" style="fill: var(--color5, #fff)" d="M31.992 32h0.008v-11.738c0-5.741-1.237-10.163-7.947-10.163-3.227 0-5.392 1.77-6.277 3.45h-0.093v-2.914h-6.365v21.363h6.627v-10.578c0-2.786 0.528-5.48 3.978-5.48 3.398 0 3.448 3.179 3.448 5.658v10.402h6.621zM0.528 10.635h6.635v21.365h-6.635v-21.365zM3.843 0c-2.123 0-3.843 1.721-3.843 3.843v0c0 2.12 1.722 3.878 3.843 3.878 2.12 0 3.842-1.757 3.842-3.878s-1.72-3.841-3.841-3.843h-0z"></path>
</symbol>
<symbol id="icon-phone" viewBox="0 0 10 16">
<path d="M8.5 0H1.5C0.672848 0 0 0.672848 0 1.5V14.5C0 15.3272 0.672848 16 1.5 16H8.5C9.32715 16 10 15.3272 10 14.5V1.5C10 0.672848 9.32715 0 8.5 0ZM1.5 1H8.5C8.77588 1 9 1.22412 9 1.5V12H1V1.5C1 1.22412 1.22412 1 1.5 1ZM8.5 15H1.5C1.22412 15 1 14.7759 1 14.5V13H9V14.5C9 14.7759 8.77588 15 8.5 15Z"></path>
</symbol>
<symbol id="icon-twitter-1" viewBox="0 0 32 32">
<path d="M32 6.078c-1.1 0.493-2.376 0.857-3.713 1.028l-0.068 0.007c1.36-0.817 2.382-2.078 2.873-3.579l0.013-0.046c-1.197 0.722-2.591 1.273-4.076 1.573l-0.084 0.014c-1.2-1.279-2.9-2.076-4.787-2.076-3.622 0-6.558 2.936-6.558 6.558 0 0.001 0 0.003 0 0.004v-0c0 0.52 0.043 1.021 0.152 1.496-5.454-0.266-10.28-2.88-13.522-6.861-0.564 0.949-0.899 2.092-0.902 3.313v0.001c0 2.272 1.171 4.286 2.914 5.451-1.091-0.030-2.107-0.325-2.994-0.823l0.033 0.017v0.072c0.003 3.165 2.236 5.807 5.213 6.44l0.043 0.008c-0.499 0.136-1.071 0.215-1.662 0.215-0.020 0-0.041-0-0.061-0l0.003 0c-0.419 0-0.843-0.024-1.242-0.112 0.85 2.598 3.261 4.509 6.13 4.57-2.215 1.746-5.045 2.8-8.122 2.8-0.004 0-0.008 0-0.013 0h0.001c-0.018 0-0.040 0-0.062 0-0.531 0-1.055-0.034-1.569-0.099l0.061 0.006c2.826 1.846 6.287 2.944 10.004 2.944 0.021 0 0.042-0 0.063-0h-0.003c12.072 0 18.672-10 18.672-18.669 0-0.288-0.010-0.57-0.024-0.848 1.299-0.936 2.39-2.064 3.258-3.355l0.030-0.047z"></path>
</symbol>
<symbol id="icon-twitter-2" viewBox="0 0 32 32">
<path fill="#fff" style="fill: var(--color5, #fff)" d="M32 6.083c-1.1 0.493-2.376 0.857-3.713 1.028l-0.068 0.007c1.36-0.817 2.382-2.078 2.873-3.579l0.013-0.046c-1.197 0.722-2.591 1.273-4.076 1.573l-0.084 0.014c-1.2-1.279-2.9-2.076-4.787-2.076-3.622 0-6.558 2.936-6.558 6.558 0 0.001 0 0.003 0 0.004v-0c0 0.52 0.043 1.021 0.152 1.496-5.454-0.266-10.28-2.88-13.522-6.861-0.564 0.949-0.899 2.092-0.902 3.313v0.001c0 2.272 1.171 4.286 2.914 5.453-1.091-0.030-2.107-0.325-2.994-0.823l0.033 0.017v0.072c0.004 3.164 2.237 5.804 5.213 6.437l0.043 0.008c-0.5 0.137-1.075 0.216-1.668 0.216-0.018 0-0.036-0-0.055-0l0.003 0c-0.419 0-0.843-0.024-1.242-0.112 0.85 2.598 3.261 4.509 6.13 4.57-2.215 1.746-5.045 2.8-8.122 2.8-0.004 0-0.008 0-0.013 0h0.001c-0.018 0-0.040 0-0.062 0-0.531 0-1.055-0.034-1.569-0.099l0.061 0.006c2.826 1.846 6.287 2.944 10.004 2.944 0.021 0 0.042-0 0.063-0h-0.003c12.072 0 18.672-10 18.672-18.669 0-0.288-0.010-0.57-0.024-0.848 1.299-0.936 2.39-2.064 3.258-3.355l0.030-0.047z"></path>
</symbol>
<symbol id="icon-button-modal-close" viewBox="0 0 11 11">
<path d="M11 1.10786L9.89214 0L5.5 4.39214L1.10786 0L0 1.10786L4.39214 5.5L0 9.89214L1.10786 11L5.5 6.60786L9.89214 11L11 9.89214L6.60786 5.5L11 1.10786Z"/>
</symbol>
<symbol id="icon-envelop-black" viewBox="0 0 16 12">
<path d="M14 0H2C1.175 0 0.5075 0.675 0.5075 1.5L0.5 10.5C0.5 11.325 1.175 12 2 12H14C14.825 12 15.5 11.325 15.5 10.5V1.5C15.5 0.675 14.825 0 14 0ZM13.7 3.1875L8.3975 6.5025C8.1575 6.6525 7.8425 6.6525 7.6025 6.5025L2.3 3.1875C2.1125 3.0675 2 2.865 2 2.6475C2 2.145 2.5475 1.845 2.975 2.1075L8 5.25L13.025 2.1075C13.4525 1.845 14 2.145 14 2.6475C14 2.865 13.8875 3.0675 13.7 3.1875Z"/>
</symbol>
<symbol id="icon-handset" viewBox="0 0 14 14">
<path d="M11.996 9.12256L10.1579 8.91269C9.71641 8.86203 9.2822 9.01401 8.97102 9.32519L7.63945 10.6568C5.59144 9.61466 3.91251 7.94296 2.87041 5.8877L4.20922 4.54888C4.5204 4.2377 4.67237 3.80349 4.62171 3.36205L4.41185 1.53836C4.325 0.807445 3.70988 0.257446 2.97173 0.257446H1.71976C0.902004 0.257446 0.221746 0.937708 0.272403 1.75547C0.655953 7.93572 5.59868 12.8712 11.7717 13.2548C12.5894 13.3054 13.2697 12.6252 13.2697 11.8074V10.5555C13.2769 9.82453 12.7269 9.2094 11.996 9.12256Z"/>
</symbol>
<symbol id="icon-man" viewBox="0 0 12 12">
<path d="M6 6C7.6575 6 9 4.6575 9 3C9 1.3425 7.6575 0 6 0C4.3425 0 3 1.3425 3 3C3 4.6575 4.3425 6 6 6ZM6 7.5C3.9975 7.5 0 8.505 0 10.5V11.25C0 11.6625 0.3375 12 0.75 12H11.25C11.6625 12 12 11.6625 12 11.25V10.5C12 8.505 8.0025 7.5 6 7.5Z"/>
</symbol>
<symbol id="icon-send" viewBox="0 0 24 24">
<path d="M24 0L0 13.5L7.66994 16.3407L19.5 5.25002L10.5017 17.3896L10.509 17.3923L10.5 17.3896V24.0001L14.8013 18.982L20.2501 21.0001L24 0Z"/>
</symbol>
<symbol id="icon-check" viewBox="0 0 16 15">
<rect width="16" height="15" rx="2"/>
<path d="M3.95703 7.75166L3.88825 7.68604L3.81923 7.75141L2.93123 8.59258L2.85486 8.66492L2.93097 8.73753L6.42671 12.0724L6.49574 12.1382L6.56476 12.0724L14.069 4.91352L14.1449 4.84116L14.069 4.76881L13.1873 3.92764L13.1183 3.86183L13.0493 3.92761L6.49577 10.1735L3.95703 7.75166Z" fill="white" stroke="white" stroke-width="0.2"/>
</symbol>
<symbol id="icon-menu" viewBox="0 0 40 40">
<path d="M8 14.6667V12H32V14.6667H8ZM8 21.3333H32V18.6667H8V21.3333ZM8 28H32V25.3333H8V28Z"/>
</symbol>
<symbol id="icon-close-menu" viewBox="0 0 40 40">
<path d="M29.6667 12.88L27.7867 11L20.3333 18.4533L12.88 11L11 12.88L18.4533 20.3333L11 27.7867L12.88 29.6667L20.3333 22.2133L27.7867 29.6667L29.6667 27.7867L22.2133 20.3333L29.6667 12.88Z"/>
</symbol>
<symbol id="icon-close-header-mobile" viewBox="0 0 40 40">
<path d="M29.6667 12.88L27.7867 11L20.3333 18.4533L12.88 11L11 12.88L18.4533 20.3333L11 27.7867L12.88 29.6667L20.3333 22.2133L27.7867 29.6667L29.6667 27.7867L22.2133 20.3333L29.6667 12.88Z"/>
</symbol>
</defs>
</svg>
